<svg width="363" height="76" viewBox="0 0 363 76" fill="none" xmlns="http://www.w3.org/2000/svg">
<path d="M60.4204 33.0928L44.2776 27.2224L38.4072 11.0796C38.0411 10.0722 37.3737 9.20182 36.4958 8.58679C35.6179 7.97176 34.5719 7.64185 33.5 7.64185C32.4281 7.64185 31.3821 7.97176 30.5042 8.58679C29.6263 9.20182 28.9589 10.0722 28.5928 11.0796L22.7224 27.2224L6.5796 33.0928C5.57216 33.4589 4.70182 34.1263 4.08679 35.0042C3.47176 35.8821 3.14185 36.9281 3.14185 38C3.14185 39.0719 3.47176 40.1179 4.08679 40.9958C4.70182 41.8737 5.57216 42.5411 6.5796 42.9072L22.7224 48.7776L28.5928 64.9204C28.9589 65.9278 29.6263 66.7982 30.5042 67.4132C31.3821 68.0282 32.4281 68.3581 33.5 68.3581C34.5719 68.3581 35.6179 68.0282 36.4958 67.4132C37.3737 66.7982 38.0411 65.9278 38.4072 64.9204L44.2776 48.7776L60.4204 42.9072C61.4278 42.5411 62.2982 41.8737 62.9132 40.9958C63.5282 40.1179 63.8581 39.0719 63.8581 38C63.8581 36.9281 63.5282 35.8821 62.9132 35.0042C62.2982 34.1263 61.4278 33.4589 60.4204 33.0928ZM40.7548 43.3757C40.3233 43.5325 39.9314 43.782 39.6067 44.1067C39.282 44.4314 39.0325 44.8233 38.8757 45.2548L33.5 60.0393L28.1243 45.2548C27.9675 44.8233 27.7179 44.4314 27.3933 44.1067C27.0686 43.782 26.6767 43.5325 26.2451 43.3757L11.4607 38L26.2451 32.6243C26.6767 32.4675 27.0686 32.2179 27.3933 31.8933C27.7179 31.5686 27.9675 31.1767 28.1243 30.7451L33.5 15.9607L38.8757 30.7451C39.0325 31.1767 39.282 31.5686 39.6067 31.8933C39.9314 32.2179 40.3233 32.4675 40.7548 32.6243L55.5393 38L40.7548 43.3757Z" fill="black"/>
<path d="M99.52 61.48C95.48 61.48 91.84 60.56 88.6 58.72C85.4 56.84 82.88 54.28 81.04 51.04C79.2 47.76 78.28 44.08 78.28 40C78.28 35.92 79.2 32.26 81.04 29.02C82.88 25.74 85.4 23.18 88.6 21.34C91.84 19.46 95.48 18.52 99.52 18.52C103.52 18.52 107.12 19.46 110.32 21.34C113.56 23.18 116.1 25.74 117.94 29.02C119.78 32.26 120.7 35.92 120.7 40C120.7 44.08 119.78 47.76 117.94 51.04C116.1 54.28 113.56 56.84 110.32 58.72C107.12 60.56 103.52 61.48 99.52 61.48ZM99.46 54.58C101.98 54.58 104.24 53.96 106.24 52.72C108.28 51.44 109.86 49.7 110.98 47.5C112.14 45.26 112.72 42.76 112.72 40C112.72 37.24 112.14 34.74 110.98 32.5C109.86 30.26 108.28 28.52 106.24 27.28C104.24 26 101.98 25.36 99.46 25.36C96.94 25.36 94.68 26 92.68 27.28C90.68 28.52 89.1 30.26 87.94 32.5C86.82 34.74 86.26 37.24 86.26 40C86.26 42.76 86.82 45.26 87.94 47.5C89.1 49.7 90.68 51.44 92.68 52.72C94.68 53.96 96.94 54.58 99.46 54.58ZM123.125 30.76H130.625L137.645 51.7L144.605 30.76H152.105L141.065 61H134.165L123.125 30.76ZM169.1 61.48C165.94 61.48 163.2 60.74 160.88 59.26C158.56 57.78 156.78 55.84 155.54 53.44C154.34 51.04 153.74 48.48 153.74 45.76C153.74 43 154.3 40.46 155.42 38.14C156.54 35.78 158.22 33.88 160.46 32.44C162.7 31 165.4 30.28 168.56 30.28C171.76 30.28 174.46 30.98 176.66 32.38C178.86 33.74 180.5 35.54 181.58 37.78C182.66 39.98 183.2 42.34 183.2 44.86C183.2 45.78 183.16 46.64 183.08 47.44H160.88C161.2 49.88 162.08 51.82 163.52 53.26C164.96 54.66 166.82 55.36 169.1 55.36C170.98 55.36 172.52 54.98 173.72 54.22C174.96 53.46 175.76 52.36 176.12 50.92H183.32C182.8 54.12 181.24 56.68 178.64 58.6C176.04 60.52 172.86 61.48 169.1 61.48ZM175.88 42.4C175.72 40.44 175 38.86 173.72 37.66C172.44 36.46 170.72 35.86 168.56 35.86C166.52 35.86 164.86 36.42 163.58 37.54C162.34 38.66 161.5 40.28 161.06 42.4H175.88ZM189.056 30.76H196.436V36.1C197.196 34.18 198.176 32.82 199.376 32.02C200.616 31.18 202.216 30.76 204.176 30.76H207.716V36.94H202.976C200.696 36.94 199.036 37.82 197.996 39.58C196.956 41.3 196.436 43.68 196.436 46.72V61H189.056V30.76ZM221.997 61.48C218.277 61.48 215.317 60.56 213.117 58.72C210.957 56.88 209.757 54.3 209.517 50.98H215.997C216.157 52.46 216.757 53.64 217.797 54.52C218.877 55.36 220.277 55.78 221.997 55.78C223.517 55.78 224.737 55.46 225.657 54.82C226.577 54.18 227.037 53.3 227.037 52.18C227.037 50.98 226.517 50.14 225.477 49.66C224.477 49.18 222.877 48.74 220.677 48.34C218.557 47.98 216.797 47.56 215.397 47.08C214.037 46.6 212.857 45.76 211.857 44.56C210.857 43.36 210.357 41.66 210.357 39.46C210.357 36.74 211.377 34.54 213.417 32.86C215.457 31.14 218.057 30.28 221.217 30.28C224.857 30.28 227.737 31.14 229.857 32.86C231.977 34.58 233.137 36.94 233.337 39.94H226.857C226.697 38.66 226.117 37.64 225.117 36.88C224.117 36.08 222.877 35.68 221.397 35.68C220.037 35.68 218.917 35.98 218.037 36.58C217.197 37.18 216.777 38.04 216.777 39.16C216.777 40.36 217.277 41.18 218.277 41.62C219.317 42.06 220.937 42.44 223.137 42.76C225.337 43.08 227.137 43.48 228.537 43.96C229.937 44.4 231.137 45.22 232.137 46.42C233.137 47.62 233.637 49.36 233.637 51.64C233.637 54.72 232.597 57.14 230.517 58.9C228.437 60.62 225.597 61.48 221.997 61.48ZM252.895 61C249.535 61 246.875 60.08 244.915 58.24C242.955 56.36 241.975 53.76 241.975 50.44V36.94H236.035V30.76H241.975V21.64H249.355V30.76H257.755V36.94H249.355V50.14C249.355 51.66 249.735 52.82 250.495 53.62C251.255 54.38 252.335 54.76 253.735 54.76H257.755V61H252.895ZM271.821 61.48C268.821 61.48 266.381 60.62 264.501 58.9C262.661 57.18 261.741 55 261.741 52.36C261.741 49.44 262.781 47.12 264.861 45.4C266.981 43.64 269.801 42.76 273.321 42.76H278.421C279.261 42.76 279.861 42.62 280.221 42.34C280.621 42.02 280.821 41.52 280.821 40.84C280.821 39.36 280.281 38.16 279.201 37.24C278.121 36.32 276.621 35.86 274.701 35.86C272.821 35.86 271.301 36.36 270.141 37.36C269.021 38.36 268.421 39.56 268.341 40.96H261.741C261.861 38.96 262.481 37.16 263.601 35.56C264.721 33.92 266.261 32.64 268.221 31.72C270.221 30.76 272.501 30.28 275.061 30.28C277.581 30.28 279.841 30.76 281.841 31.72C283.841 32.64 285.381 33.96 286.461 35.68C287.581 37.36 288.141 39.3 288.141 41.5V61H280.821V56.5C280.221 58.02 279.101 59.24 277.461 60.16C275.821 61.04 273.941 61.48 271.821 61.48ZM273.561 56.02C275.801 56.02 277.561 55.3 278.841 53.86C280.161 52.42 280.821 50.56 280.821 48.28V47.8H274.281C272.641 47.8 271.321 48.18 270.321 48.94C269.361 49.7 268.881 50.74 268.881 52.06C268.881 53.26 269.301 54.22 270.141 54.94C271.021 55.66 272.161 56.02 273.561 56.02ZM295.228 30.76H302.608V35.44C303.408 33.8 304.628 32.54 306.268 31.66C307.948 30.74 309.868 30.28 312.028 30.28C314.268 30.28 316.228 30.8 317.908 31.84C319.628 32.84 320.948 34.24 321.868 36.04C322.788 37.84 323.248 39.92 323.248 42.28V61H315.928V43.84C315.928 41.76 315.328 40.08 314.128 38.8C312.968 37.48 311.448 36.82 309.568 36.82C307.528 36.82 305.848 37.54 304.528 38.98C303.248 40.42 302.608 42.26 302.608 44.5V61H295.228V30.76ZM342.624 61.48C339.784 61.48 337.304 60.82 335.184 59.5C333.104 58.18 331.504 56.34 330.384 53.98C329.264 51.62 328.704 48.92 328.704 45.88C328.704 42.84 329.264 40.14 330.384 37.78C331.504 35.42 333.124 33.58 335.244 32.26C337.364 30.94 339.864 30.28 342.744 30.28C344.624 30.28 346.364 30.66 347.964 31.42C349.604 32.14 350.904 33.14 351.864 34.42V17.8H359.184V61H351.864V57.22C350.944 58.5 349.644 59.54 347.964 60.34C346.324 61.1 344.544 61.48 342.624 61.48ZM344.124 55.12C346.604 55.12 348.584 54.28 350.064 52.6C351.544 50.92 352.284 48.68 352.284 45.88C352.284 43.08 351.544 40.84 350.064 39.16C348.584 37.48 346.604 36.64 344.124 36.64C341.684 36.64 339.724 37.48 338.244 39.16C336.764 40.84 336.024 43.08 336.024 45.88C336.024 48.68 336.764 50.92 338.244 52.6C339.724 54.28 341.684 55.12 344.124 55.12Z" fill="black"/>
</svg>
